<?xml version="1.0" encoding="UTF-8" standalone="no"?>
<svg
   xmlns:dc="http://purl.org/dc/elements/1.1/"
   xmlns:cc="http://creativecommons.org/ns#"
   xmlns:rdf="http://www.w3.org/1999/02/22-rdf-syntax-ns#"
   xmlns:svg="http://www.w3.org/2000/svg"
   xmlns="http://www.w3.org/2000/svg"
   xmlns:sodipodi="http://sodipodi.sourceforge.net/DTD/sodipodi-0.dtd"
   xmlns:inkscape="http://www.inkscape.org/namespaces/inkscape"
   width="64"
   height="46"
   viewBox="0 0 16.933 12.170594"
   version="1.1"
   id="svg8"
   sodipodi:docname="logo-min.svg"
   inkscape:version="1.0.2 (1.0.2+r75+1)">
  <metadata
     id="metadata19">
    <rdf:RDF>
      <cc:Work
         rdf:about="">
        <dc:format>image/svg+xml</dc:format>
        <dc:type
           rdf:resource="http://purl.org/dc/dcmitype/StillImage" />
        <dc:title></dc:title>
      </cc:Work>
    </rdf:RDF>
  </metadata>
  <sodipodi:namedview
     pagecolor="#ffffff"
     bordercolor="#666666"
     borderopacity="1"
     objecttolerance="10"
     gridtolerance="10"
     guidetolerance="10"
     inkscape:pageopacity="0"
     inkscape:pageshadow="2"
     inkscape:window-width="1600"
     inkscape:window-height="861"
     id="namedview17"
     showgrid="false"
     inkscape:zoom="8.765625"
     inkscape:cx="32"
     inkscape:cy="32"
     inkscape:window-x="0"
     inkscape:window-y="0"
     inkscape:window-maximized="1"
     inkscape:current-layer="svg8" />
  <defs
     id="defs2">
    <style
       id="style10">.cls-1{fill:#313673}.cls-3{fill:#fff}</style>
  </defs>
  <g
     id="layer1"
     transform="matrix(0.99998737,0,0,1.0037977,2.6331849e-4,-2.3905144)">
    <g
       id="g88"
       transform="matrix(0.26458,0,0,0.26458,3.16,2.096)">
      <g
         id="g922"
         transform="matrix(0.17736,0,0,0.17736,-11.948,1.073)">
        <path
           class="cls-1"
           d="m 367.46,473.29 c 0,-64.73 -80.74,-117.5 -180.33,-117.5 -99.59,0 -180.34,52.77 -180.34,117.5 v 6.88 c 0,68.68 70.57,124.29 180.33,124.29 110.44,0 180.36,-55.61 180.36,-124.28 z"
           transform="translate(-6.77,-346.05)"
           id="path42" />
        <path
           d="m 360.56,473.23 c 0,61 -77.64,110.5 -173.4,110.5 -95.76,0 -173.4,-49.47 -173.4,-110.5 0,-61.03 77.63,-110.51 173.4,-110.51 95.77,0 173.4,49.48 173.4,110.51"
           transform="translate(-6.77,-346.05)"
           id="path44"
           fill="#f4cf00" />
        <path
           class="cls-3"
           d="m 15.77,510.91 c 8.35,17.88 16.71,26.4 16.71,26.4 3.68,-7.09 4,-10.87 8,-12.33 5.84,-2.13 8,0.89 27.19,3.44 30.34,4 43.51,5.22 96.26,0.52 38.24,-3.4 12.59,-44.39 3.83,-66.34 -8.76,-21.95 -17.9,-41.44 -23.07,-52.57 -5.17,-11.13 -11.53,-22.17 -20.28,-31.57 -8.75,-9.4 -23.86,-24.53 -28.24,-28.1 -4.38,-3.57 -11.93,2.39 -14.72,4.78 -2.79,2.39 -19.52,9.92 -14.12,17.3 0,0 2.59,4.48 4.78,6 2.19,1.52 -12.37,-4.44 -12.37,4.14 0,8.58 13.32,7.16 17.1,8.75 3.78,1.59 7.56,1.59 11.73,3.78 4.17,2.19 11,5 16.46,4.77 5.46,-0.23 7.41,-3 10.19,4.18 2.78,7.18 9.75,23.47 8.55,40 -1.2,16.53 0.27,38.77 3.45,46.92 0,0 -63.84,-30 -115.94,-19.88 0,0 -2,26 4.49,39.83"
           transform="translate(-6.77,-346.05)"
           id="path46" />
        <path
           class="cls-1"
           d="m 33.28,542.66 -3.07,-3.13 C 29.85,539.17 21.37,530.41 12.89,512.25 6.17,497.84 8,471.94 8.11,470.84 l 0.18,-2.42 2.38,-0.46 c 43.66,-8.5 94.39,10.19 111.78,17.44 -2.17,-11.16 -2.77,-28.77 -1.85,-41.59 1.07,-14.72 -4.66,-29.26 -7.74,-37.08 l -0.6,-1.52 c -1,-2.45 -1.53,-2.85 -1.55,-2.86 a 10.5,10.5 0 0 0 -1.74,0.25 25.94,25.94 0 0 1 -3.82,0.46 C 98,403.34 89.52,399.2 87.1,397.93 a 24.92,24.92 0 0 0 -6.07,-2 33.9,33.9 0 0 1 -5.43,-1.64 22.44,22.44 0 0 0 -3.75,-0.65 c -5.35,-0.68 -15.29,-1.94 -15.29,-11 a 7.38,7.38 0 0 1 2.61,-6 9.48,9.48 0 0 1 5.76,-1.92 l -0.31,-0.51 a 8.09,8.09 0 0 1 -1.42,-6.34 c 1.16,-5.85 8.56,-10.38 13.46,-13.37 1.08,-0.67 2.31,-1.42 2.68,-1.73 10,-8.54 15.72,-7.34 18.8,-4.83 4.55,3.72 19.94,19.14 28.56,28.39 7.89,8.48 14.51,18.77 20.84,32.4 l 1,2 c 5.2,11.2 13.92,29.95 22.19,50.7 1.28,3.21 3,6.91 4.74,10.81 7.43,16.35 16.69,36.7 9.32,49.36 -3.54,6.08 -10.46,9.61 -20.57,10.51 -53,4.71 -66.32,3.54 -97,-0.54 a 168.72,168.72 0 0 1 -17,-3.1 c -5,-1.15 -6.26,-1.38 -8.66,-0.51 -1.43,0.52 -2,1.46 -3.63,5.25 -0.67,1.52 -1.49,3.41 -2.61,5.56 z m -14.63,-33.1 a 116.41,116.41 0 0 0 13.08,21.92 l 0.36,-0.82 c 1.75,-4 3.14,-7.16 7.26,-8.67 4.12,-1.51 7.11,-0.9 12.27,0.28 a 162.42,162.42 0 0 0 16.43,3 c 30.12,4 43.2,5.16 95.56,0.51 8,-0.72 13.16,-3.13 15.63,-7.38 5.72,-9.82 -2.78,-28.51 -9.61,-43.53 -1.81,-4 -3.52,-7.73 -4.86,-11.09 -8.2,-20.58 -16.87,-39.23 -22.05,-50.37 l -0.95,-2 c -6,-13 -12.3,-22.78 -19.73,-30.75 -9.07,-9.75 -24,-24.55 -27.92,-27.79 -1.57,-1.28 -5.85,0.61 -10.64,4.72 A 29.59,29.59 0 0 1 80,359.88 c -3.22,2 -9.92,6.07 -10.53,9.18 a 1.71,1.71 0 0 0 0.42,1.5 l 0.18,0.29 c 0.91,1.56 2.76,4.24 3.86,5 a 3.3,3.3 0 0 1 1.31,4.08 c -1.06,2.46 -3.59,2 -5,1.69 -3.84,-0.77 -6.21,-0.81 -7,-0.12 a 1.42,1.42 0 0 0 -0.29,1.07 c 0,2.67 2.28,3.78 9.74,4.72 a 22.3,22.3 0 0 1 5.42,1.1 28.35,28.35 0 0 0 4.44,1.32 30.67,30.67 0 0 1 7.54,2.58 c 4.27,2.24 10.43,4.57 14.86,4.41 a 20.86,20.86 0 0 0 2.94,-0.37 c 4,-0.71 7.5,-0.71 10.33,6.57 l 0.59,1.49 c 3,7.7 9.34,23.71 8.17,39.86 -1.19,16.45 0.36,38.16 3.24,45.54 l 2.89,7.42 -7.2,-3.38 C 125.29,493.54 64.38,465.3 14.35,473.75 14,480.41 13.74,499 18.65,509.56 Z"
           transform="translate(-6.77,-346.05)"
           id="path48" />
        <path
           class="cls-1"
           d="m 66,381 a 30,30 0 0 1 10.47,2.61 c 3.07,1.48 4.54,3.11 7.51,1.88 0.44,-0.18 0.89,-0.34 1.33,-0.5 6.88,-2.49 6.88,-2.49 11.75,2.94 4,4.4 7.11,5.35 10.18,3.64 -3.9,-3.82 -8.21,-7.56 -11.92,-11.82 -4.59,-5.28 -4.43,-6.52 -0.7,-12 l -0.54,-0.81 c -1.27,1 -2.57,1.92 -3.8,2.94 -0.83,0.67 -1.57,1.45 -2.35,2.17 -0.86,-1 -2,-1.91 -2.51,-3.08 -0.56,-1.35 -0.52,-2.94 -1.54,-4.48 -0.23,2.47 -0.47,4.94 -0.72,7.65 l -4.06,0.47 3.56,1.49 c -0.13,0.78 -0.26,1.61 -0.42,2.57 4.14,-2.79 6.59,-4.38 8.19,2.59 -3.07,0.94 -5.47,1.38 -8.62,2.1 -2.18,0.5 -8.63,-6.23 -10.22,-7.75"
           transform="translate(-6.77,-346.05)"
           id="path50" />
        <path
           class="cls-3"
           d="m 355.67,510.91 c -8.35,17.88 -16.71,26.4 -16.71,26.4 -3.68,-7.09 -3.95,-10.87 -8,-12.33 -5.83,-2.13 -8,0.89 -27.18,3.44 -30.34,4 -43.51,5.22 -96.26,0.52 -38.24,-3.4 -12.59,-44.39 -3.84,-66.34 8.75,-21.95 17.9,-41.44 23.07,-52.57 5.17,-11.13 11.54,-22.17 20.29,-31.57 8.75,-9.4 23.86,-24.53 28.24,-28.1 4.38,-3.57 11.93,2.39 14.72,4.78 2.79,2.39 19.52,9.92 14.12,17.3 0,0 -2.59,4.48 -4.78,6 -2.19,1.52 12.33,-4.43 12.33,4.12 0,8.55 -13.32,7.16 -17.1,8.75 -3.78,1.59 -7.56,1.59 -11.73,3.78 -4.17,2.19 -11,5 -16.46,4.77 -5.46,-0.23 -7.41,-3 -10.19,4.18 -2.78,7.18 -9.75,23.47 -8.55,40 1.2,16.53 -0.27,38.77 -3.45,46.92 0,0 67.88,-30.62 120,-20.47 0,0 -2.08,26.6 -8.53,40.42"
           transform="translate(-6.77,-346.05)"
           id="path52" />
        <path
           class="cls-1"
           d="m 338.16,542.66 -2,-3.89 c -1.12,-2.15 -1.95,-4 -2.61,-5.55 -1.66,-3.8 -2.2,-4.74 -3.63,-5.26 -2.4,-0.87 -3.67,-0.64 -8.67,0.51 a 167.82,167.82 0 0 1 -17,3.1 c -30.64,4.08 -43.93,5.25 -97,0.54 -10.11,-0.9 -17,-4.44 -20.57,-10.51 -7.37,-12.66 1.88,-33 9.32,-49.36 1.78,-3.9 3.46,-7.6 4.74,-10.81 8.27,-20.75 17,-39.51 22.2,-50.71 l 0.94,-2 c 6.33,-13.63 12.95,-23.92 20.84,-32.4 8.61,-9.25 24,-24.68 28.56,-28.39 3.08,-2.51 8.84,-3.71 18.8,4.82 0.36,0.32 1.6,1.07 2.68,1.74 4.9,3 12.3,7.52 13.46,13.37 a 8.13,8.13 0 0 1 -1.42,6.34 l -0.31,0.51 a 9.48,9.48 0 0 1 5.76,1.92 7.37,7.37 0 0 1 2.61,6 c 0,9.09 -9.95,10.35 -15.29,11 a 22.6,22.6 0 0 0 -3.76,0.65 33.5,33.5 0 0 1 -5.42,1.64 24.92,24.92 0 0 0 -6.07,2 c -2.43,1.27 -10.89,5.41 -18,5.13 a 25.76,25.76 0 0 1 -3.82,-0.46 8.29,8.29 0 0 0 -1.81,-0.23 8,8 0 0 0 -1.49,2.84 l -0.6,1.52 c -3.08,7.82 -8.81,22.36 -7.74,37.07 0.93,12.87 0.32,30.56 -1.87,41.72 a 322.58,322.58 0 0 1 34.87,-11.67 c 39.4,-10.72 65.78,-9.44 81,-6.49 l 2.78,0.55 -0.22,2.82 c -0.09,1.11 -2.2,27.34 -8.82,41.52 -8.48,18.16 -17,26.92 -17.32,27.28 z m -11,-21.58 a 13.8,13.8 0 0 1 4.88,0.91 c 4.13,1.51 5.51,4.67 7.27,8.67 l 0.36,0.82 a 116.41,116.41 0 0 0 13.08,-21.92 c 4.92,-10.55 7.24,-29.32 8,-36.46 -50.12,-8.23 -114.58,20.46 -115.23,20.76 l -7.1,3.2 2.83,-7.26 c 2.88,-7.38 4.43,-29.09 3.23,-45.54 -1.16,-16.15 5.15,-32.16 8.18,-39.86 l 0.59,-1.49 c 2.83,-7.28 6.35,-7.28 10.33,-6.57 a 20.71,20.71 0 0 0 2.93,0.37 c 4.43,0.15 10.6,-2.17 14.87,-4.41 a 30.67,30.67 0 0 1 7.54,-2.58 28.35,28.35 0 0 0 4.44,-1.32 22.3,22.3 0 0 1 5.42,-1.1 c 7.46,-0.94 9.74,-2.05 9.74,-4.72 a 1.42,1.42 0 0 0 -0.29,-1.07 c -0.84,-0.69 -3.21,-0.65 -7.05,0.12 -1.37,0.27 -3.9,0.77 -5,-1.69 a 3.3,3.3 0 0 1 1.31,-4.08 c 1.1,-0.77 2.95,-3.45 3.85,-5 l 0.19,-0.29 a 1.71,1.71 0 0 0 0.42,-1.5 c -0.61,-3.11 -7.32,-7.21 -10.54,-9.18 a 30.16,30.16 0 0 1 -3.5,-2.33 c -4.79,-4.1 -9.07,-6 -10.64,-4.72 -4,3.24 -18.85,18 -27.92,27.79 -7.43,8 -13.7,17.74 -19.73,30.75 l -0.95,2 c -5.18,11.14 -13.85,29.79 -22.05,50.38 -1.34,3.36 -3,7.12 -4.86,11.1 -6.83,15 -15.34,33.7 -9.61,43.52 2.47,4.25 7.59,6.66 15.63,7.38 52.36,4.66 65.44,3.5 95.56,-0.51 a 162.08,162.08 0 0 0 16.42,-3 33.81,33.81 0 0 1 7.39,-1.19"
           transform="translate(-6.77,-346.05)"
           id="path54" />
        <path
           class="cls-1"
           d="M 305.42,381 A 30,30 0 0 0 295,383.63 c -3.07,1.48 -4.54,3.11 -7.52,1.88 -0.43,-0.18 -0.88,-0.34 -1.32,-0.5 -6.88,-2.49 -6.88,-2.49 -11.75,2.94 -4,4.4 -7.11,5.35 -10.18,3.64 3.9,-3.82 8.21,-7.56 11.91,-11.82 4.6,-5.28 4.44,-6.52 0.71,-12 l 0.54,-0.81 c 1.27,1 2.56,1.92 3.8,2.94 0.83,0.67 1.57,1.45 2.35,2.17 0.86,-1 2,-1.91 2.51,-3.08 0.56,-1.35 0.51,-2.94 1.54,-4.48 0.23,2.47 0.47,4.94 0.72,7.65 l 4.06,0.47 -3.56,1.49 c 0.13,0.78 0.26,1.61 0.42,2.57 -4.14,-2.79 -6.59,-4.38 -8.19,2.59 3.07,0.94 5.46,1.38 8.62,2.1 2.17,0.5 8.63,-6.23 10.22,-7.75"
           transform="translate(-6.77,-346.05)"
           id="path56" />
        <path
           class="cls-1"
           d="m 336.79,417.35 c 15.1,16.39 23.77,35.49 23.77,55.88 0,61 -77.64,110.5 -173.4,110.5 -95.76,0 -173.4,-49.47 -173.4,-110.5 a 75.39,75.39 0 0 1 9.85,-36.8 l -8,0.56 a 80.74,80.74 0 0 0 -8.8,36.3 v 6.88 c 0,68.68 70.57,124.29 180.33,124.29 110.44,0 180.36,-55.61 180.36,-124.28 v -6.89 c 0,-20.23 -7.88,-39.29 -21.76,-55.94 z"
           transform="translate(-6.77,-346.05)"
           id="path58" />
      </g>
    </g>
  </g>
</svg>
